<?xml version="1.0" encoding="iso-8859-1"?>
<!-- Generator: Adobe Illustrator 16.0.0, SVG Export Plug-In . SVG Version: 6.00 Build 0)  -->
<!DOCTYPE svg PUBLIC "-//W3C//DTD SVG 1.1//EN" "http://www.w3.org/Graphics/SVG/1.1/DTD/svg11.dtd">
<svg version="1.1" id="Capa_1" xmlns="http://www.w3.org/2000/svg" xmlns:xlink="http://www.w3.org/1999/xlink" x="0px" y="0px"
	 width="441.344px" height="441.344px" viewBox="0 0 441.344 441.344" style="enable-background:new 0 0 441.344 441.344;"
	 xml:space="preserve">
<g>
	<path d="M314.016,17.679c-36.879,0-70.09,16.419-93.344,42.648c-23.252-26.229-56.465-42.648-93.344-42.648
		C57.008,17.679,0,77.354,0,150.969c0,19.779,3.338,38.813,9.184,56.989c0,0,5.301,16.4,9.997,25.428
		c53.671,115.428,201.491,190.279,201.491,190.279s147.82-74.852,201.491-190.279c0,0,6.925-15.38,9.997-25.428
		c5.582-18.26,9.184-37.21,9.184-56.989C441.344,77.354,384.336,17.679,314.016,17.679z"/>
</g>
<g>
</g>
<g>
</g>
<g>
</g>
<g>
</g>
<g>
</g>
<g>
</g>
<g>
</g>
<g>
</g>
<g>
</g>
<g>
</g>
<g>
</g>
<g>
</g>
<g>
</g>
<g>
</g>
<g>
</g>
</svg>
