<?xml version="1.0" encoding="iso-8859-1"?>
<!-- Generator: Adobe Illustrator 19.0.0, SVG Export Plug-In . SVG Version: 6.00 Build 0)  -->
<svg version="1.1" id="Capa_1" xmlns="http://www.w3.org/2000/svg" xmlns:xlink="http://www.w3.org/1999/xlink" x="0px" y="0px"
	 viewBox="0 0 296 296" style="enable-background:new 0 0 296 296;" xml:space="preserve">
<g>
	<path d="M296,130.25c0-13.945-11.23-25.25-25.083-25.25H25.083C11.23,105,0,116.305,0,130.25v35.5C0,179.695,11.23,191,25.083,191
		h245.834C284.77,191,296,179.695,296,165.75V130.25z M263.833,167.5c0,4.143-3.357,7.5-7.5,7.5h-34c-4.143,0-7.5-3.357-7.5-7.5
		s3.357-7.5,7.5-7.5h34C260.476,160,263.833,163.357,263.833,167.5z M199.585,151.593c3.587,2.071,4.816,6.658,2.745,10.245
		c-1.389,2.406-3.91,3.751-6.502,3.751c-1.272,0-2.728-0.324-3.91-1.006L186,161.262V168c0,4.143-3.357,7.5-7.5,7.5
		c-4.143,0-7.5-3.357-7.5-7.5v-6.93l-5.919,3.513c-1.181,0.682-2.387,1.006-3.66,1.006c-2.592,0-5.072-1.345-6.46-3.751
		c-2.071-3.587-0.821-8.174,2.766-10.245l5.929-3.417l-6.14-3.548c-3.587-2.071-4.814-6.658-2.742-10.245
		c2.069-3.588,6.49-4.815,10.08-2.745l6.146,3.644V128c0-4.143,3.357-7.5,7.5-7.5c4.143,0,7.5,3.357,7.5,7.5v7.09l6.145-3.452
		c3.585-2.07,8.258-0.843,10.328,2.745c2.071,3.587,0.883,8.174-2.703,10.245l-6.125,3.548L199.585,151.593z M139.251,151.593
		c3.587,2.071,4.816,6.658,2.745,10.245c-1.389,2.406-3.91,3.751-6.502,3.751c-1.272,0-2.728-0.324-3.91-1.006L125,160.878V168
		c0,4.143-3.357,7.5-7.5,7.5c-4.143,0-7.5-3.357-7.5-7.5v-6.546l-5.252,3.129c-1.181,0.682-2.387,1.006-3.66,1.006
		c-2.592,0-5.072-1.345-6.46-3.751c-2.071-3.587-0.821-8.174,2.766-10.245l5.929-3.417l-6.14-3.548
		c-3.587-2.071-4.814-6.658-2.743-10.245c2.07-3.588,6.491-4.815,10.08-2.745l5.48,3.26V128c0-4.143,3.357-7.5,7.5-7.5
		c4.143,0,7.5,3.357,7.5,7.5v7.474l6.811-3.836c3.586-2.07,8.258-0.843,10.328,2.745c2.071,3.587,0.883,8.174-2.703,10.245
		l-6.125,3.548L139.251,151.593z M78.918,151.593c3.587,2.071,4.816,6.658,2.745,10.245c-1.389,2.406-3.91,3.751-6.502,3.751
		c-1.272,0-2.728-0.324-3.91-1.006L65,161.07V168c0,4.143-3.357,7.5-7.5,7.5c-4.143,0-7.5-3.357-7.5-7.5v-6.738l-5.585,3.321
		c-1.181,0.682-2.387,1.006-3.66,1.006c-2.592,0-5.072-1.345-6.46-3.751c-2.071-3.587-0.821-8.174,2.766-10.245l5.929-3.417
		l-6.14-3.548c-3.587-2.071-4.814-6.658-2.742-10.245c2.069-3.588,6.491-4.815,10.08-2.745L50,135.09V128c0-4.143,3.357-7.5,7.5-7.5
		c4.143,0,7.5,3.357,7.5,7.5v7.281l6.478-3.644c3.586-2.07,8.258-0.843,10.328,2.745c2.071,3.587,0.883,8.174-2.703,10.245
		l-6.125,3.548L78.918,151.593z"/>
</g>
<g>
</g>
<g>
</g>
<g>
</g>
<g>
</g>
<g>
</g>
<g>
</g>
<g>
</g>
<g>
</g>
<g>
</g>
<g>
</g>
<g>
</g>
<g>
</g>
<g>
</g>
<g>
</g>
<g>
</g>
</svg>
