<?xml version="1.0" encoding="iso-8859-1"?>
<!-- Generator: Adobe Illustrator 16.0.0, SVG Export Plug-In . SVG Version: 6.00 Build 0)  -->
<!DOCTYPE svg PUBLIC "-//W3C//DTD SVG 1.1//EN" "http://www.w3.org/Graphics/SVG/1.1/DTD/svg11.dtd">
<svg version="1.1" id="Capa_1" xmlns="http://www.w3.org/2000/svg" xmlns:xlink="http://www.w3.org/1999/xlink" x="0px" y="0px"
	 width="489.394px" height="489.394px" viewBox="0 0 489.394 489.394" style="enable-background:new 0 0 489.394 489.394;"
	 xml:space="preserve">
<g>
	<path d="M113.605,92.868h208.924l-17.506-42.795c-3.725-9.132-1-19.574,6.691-25.744c7.699-6.166,18.537-6.508,26.639-0.879
		l141.465,98.261c6.197,4.304,9.795,11.457,9.564,18.995c-0.232,7.533-4.262,14.446-10.711,18.359l-147.926,89.823
		c-8.416,5.107-19.18,4.093-26.48-2.499c-7.312-6.591-9.427-17.312-5.219-26.202l19.443-41.132H113.605
		c-15.119,0-27.418,12.536-27.418,27.654v149.852c0,15.118,12.299,27.189,27.418,27.189h226.741
		c20.225,0,36.623,16.396,36.623,36.623v12.942c0,20.227-16.398,36.623-36.623,36.623H113.605C50.963,469.939,0,419.207,0,356.56
		V206.71C-0.001,144.063,50.963,92.868,113.605,92.868z"/>
</g>
<g>
</g>
<g>
</g>
<g>
</g>
<g>
</g>
<g>
</g>
<g>
</g>
<g>
</g>
<g>
</g>
<g>
</g>
<g>
</g>
<g>
</g>
<g>
</g>
<g>
</g>
<g>
</g>
<g>
</g>
</svg>
