<?xml version="1.0" encoding="iso-8859-1"?>
<!-- Generator: Adobe Illustrator 16.0.0, SVG Export Plug-In . SVG Version: 6.00 Build 0)  -->
<!DOCTYPE svg PUBLIC "-//W3C//DTD SVG 1.1//EN" "http://www.w3.org/Graphics/SVG/1.1/DTD/svg11.dtd">
<svg version="1.1" id="Capa_1" xmlns="http://www.w3.org/2000/svg" xmlns:xlink="http://www.w3.org/1999/xlink" x="0px" y="0px"
	 width="523.829px" height="523.83px" viewBox="0 0 523.829 523.83" style="enable-background:new 0 0 523.829 523.83;"
	 xml:space="preserve">
<g>
	<path d="M519.572,109.974L413.849,4.327c-5.737-5.737-15.07-5.737-20.808,0l-12.164,12.164c-5.737,5.738-5.737,15.071,0,20.808
		l4.896,4.896L265.209,162.835c-29.069-15.912-66.172-11.628-90.729,12.928l-43.452,43.452c-5.737,5.737-5.737,15.07,0,20.808
		l53.321,53.32L3.962,492.704c-5.432,6.043-5.278,15.605,0.459,21.344l5.278,5.278c5.738,5.737,15.3,6.043,21.344,0.459
		l199.206-180.158l52.861,52.862c5.737,5.737,15.07,5.737,20.808,0l43.452-43.452c24.48-24.48,28.917-61.2,13.312-90.271
		l120.641-120.64l4.896,4.896c5.737,5.737,15.07,5.737,20.809,0l12.163-12.164C525.31,125.121,525.31,115.788,519.572,109.974z"/>
</g>
<g>
</g>
<g>
</g>
<g>
</g>
<g>
</g>
<g>
</g>
<g>
</g>
<g>
</g>
<g>
</g>
<g>
</g>
<g>
</g>
<g>
</g>
<g>
</g>
<g>
</g>
<g>
</g>
<g>
</g>
</svg>
